<svg data-v-fde0c5aa="" xmlns="http://www.w3.org/2000/svg" viewBox="0 0 300 300" class="iconLeftSlogan"><!----><defs data-v-fde0c5aa=""><!----></defs><rect data-v-fde0c5aa="" fill="#343a40" x="0" y="0" width="300px" height="300px" class="logo-background-square"></rect><defs data-v-fde0c5aa=""><!----></defs><g data-v-fde0c5aa="" id="e4ea3372-3a41-41ea-ae6b-74d75ec47a95" fill="#FFFFFF" transform="matrix(2.4315189512021997,0,0,2.4315189512021997,109.68349729463301,121.5690865353975)"><path d="M2.49 12.67L0.30 12.67L4.40 2.42L6.45 2.42L10.55 12.67L8.37 12.67L7.75 11.10L3.10 11.10L2.49 12.67ZM7 9.05L5.48 5.15L3.92 9.05L7 9.05ZM16.04 10.25L16.04 10.25L16.04 5.83L17.96 5.83L17.96 12.67L16.04 12.67L16.04 12.05L16.04 12.05Q15.35 12.67 14.40 12.67L14.40 12.67L14.40 12.67Q13.10 12.67 12.42 11.88L12.42 11.88L12.42 11.88Q11.74 11.09 11.74 10.07L11.74 10.07L11.74 5.83L13.65 5.83L13.65 9.59L13.65 9.59Q13.65 10.27 13.99 10.65L13.99 10.65L13.99 10.65Q14.33 11.03 15.03 11.05L15.03 11.05L15.03 11.05Q15.62 11.01 16.04 10.25ZM23.83 12.35L23.83 12.35Q23.34 12.67 22.70 12.67L22.70 12.67L22.70 12.67Q21.54 12.67 20.86 12.02L20.86 12.02L20.86 12.02Q20.17 11.38 20.17 10.35L20.17 10.35L20.17 7.39L19.15 7.39L19.15 5.84L20.17 5.84L20.17 3.99L22.09 3.79L22.09 5.84L23.12 5.84L23.12 7.39L22.09 7.39L22.09 10.08L22.09 10.08Q22.09 10.62 22.32 10.85L22.32 10.85L22.32 10.85Q22.55 11.07 22.91 11.07L22.91 11.07L22.91 11.07Q23.02 11.07 23.43 10.98L23.43 10.98L23.83 12.35ZM28.08 12.74L28.08 12.74Q26.59 12.74 25.59 11.74L25.59 11.74L25.59 11.74Q24.60 10.74 24.60 9.26L24.60 9.26L24.60 9.26Q24.60 7.77 25.59 6.77L25.59 6.77L25.59 6.77Q26.59 5.77 28.08 5.77L28.08 5.77L28.08 5.77Q29.57 5.77 30.57 6.77L30.57 6.77L30.57 6.77Q31.57 7.77 31.57 9.26L31.57 9.26L31.57 9.26Q31.57 10.75 30.57 11.74L30.57 11.74L30.57 11.74Q29.57 12.74 28.08 12.74L28.08 12.74ZM28.08 11.09L28.08 11.09L28.08 11.09Q28.85 11.09 29.34 10.56L29.34 10.56L29.34 10.56Q29.83 10.04 29.83 9.26L29.83 9.26L29.83 9.26Q29.83 8.48 29.34 7.96L29.34 7.96L29.34 7.96Q28.85 7.43 28.07 7.43L28.07 7.43L28.07 7.43Q27.30 7.43 26.81 7.96L26.81 7.96L26.81 7.96Q26.33 8.48 26.33 9.26L26.33 9.26L26.33 9.26Q26.33 10.04 26.81 10.56L26.81 10.56L26.81 10.56Q27.30 11.09 28.08 11.09ZM36.36 2.42L36.36 2.42Q37.79 2.42 38.58 2.76L38.58 2.76L38.58 2.76Q39.36 3.10 40.04 3.79L40.04 3.79L38.68 5.15L38.68 5.15Q37.99 4.33 36.76 4.33L36.76 4.33L36.76 4.33Q35.53 4.33 35.19 4.92L35.19 4.92L35.19 4.92Q34.85 5.50 35.19 5.91L35.19 5.91L35.19 5.91Q35.53 6.32 36.76 6.52L36.76 6.52L36.76 6.52Q38.06 6.66 39.12 7.38L39.12 7.38L39.12 7.38Q40.18 8.09 40.18 9.67L40.18 9.67L40.18 9.67Q40.18 10.90 39.05 11.79L39.05 11.79L39.05 11.79Q37.92 12.67 36.42 12.67L36.42 12.67L36.42 12.67Q34.99 12.67 34.03 12.26L34.03 12.26L34.03 12.26Q33.07 11.85 32.39 11.17L32.39 11.17L33.76 9.80L33.76 9.80Q34.44 10.62 36.08 10.76L36.08 10.76L36.08 10.76Q37.45 10.76 37.79 10.18L37.79 10.18L37.79 10.18Q38.12 9.60 37.79 9.02L37.79 9.02L37.79 9.02Q37.45 8.44 36.08 8.30L36.08 8.30L36.08 8.30Q34.85 8.16 33.82 7.55L33.82 7.55L33.82 7.55Q32.80 6.93 32.80 5.43L32.80 5.43L32.80 5.43Q32.80 4.07 33.96 3.24L33.96 3.24L33.96 3.24Q35.13 2.42 36.36 2.42L36.36 2.42ZM44.06 12.67L42.01 12.67L42.01 2.42L42.70 2.42L47.14 7.48L51.59 2.42L52.27 2.42L52.27 12.67L50.22 12.67L50.22 6.73L47.14 10.14L44.06 6.73L44.06 12.67ZM61.81 12.67L54.29 12.67L54.29 2.43L61.82 2.42L61.82 4.33L56.34 4.33L56.34 6.52L60.45 6.52L60.45 8.43L56.34 8.43L56.34 10.76L61.81 10.76L61.81 12.67Z"></path></g><defs data-v-fde0c5aa=""><!----></defs><g data-v-fde0c5aa="" id="3340bf11-5cef-4981-b617-999a11a8af63" stroke="none" fill="#1cac81" transform="matrix(1.9137651002993215,0,0,1.9137651002993215,30.431174498503392,111.72469799401357)"><path fill-rule="evenodd" clip-rule="evenodd" d="M34 10.9c.6-.2 1-.8 1-1.4 0-.8-.7-1.5-1.5-1.5S32 8.7 32 9.5c0 .7.4 1.2 1 1.4v5.3c-.1 0-.2-.1-.3-.1C31.3 10.3 26.2 6 20 6 13.8 6 8.7 10.3 7.3 16.1 6 16.4 5 17.6 5 19s1 2.6 2.3 2.9c.5 2 1.4 3.8 2.7 5.4V30s2 4 10 4 10-4 10-4v-2.7c1.3-1.5 2.2-3.4 2.7-5.4C34 21.6 35 20.4 35 19c0-.9-.4-1.7-1-2.2v-5.9zm-2.9 11c-.5 2-1.5 3.7-2.9 5.1-2.1 2.2-5 0-8.2 0-3.2 0-6.2 2.2-8.2 0-1.4-1.4-2.4-3.2-2.9-5.1-.3-1-.4-1.9-.4-2.9s.1-1.9.4-2.9c1.3-5 5.8-6.6 11.1-6.6 5.4 0 9.9 1.7 11.1 6.6.2.9.4 1.9.4 2.9s-.1 1.9-.4 2.9zM20 11.9c-4 0-7.3 1.3-8.3 5-.2.7-.3 1.4-.3 2.1 0 .7.1 1.4.3 2.1l.1.2c2-1.6 5.3-3.4 9.7-3.4-4.2 1.7-6.9 4.1-8.4 6 .3.4.5.7.8 1 .5.5 1.1.7 1.7.7 1.3 0 2.8-.7 4.4-.7 1.6 0 3.1.7 4.4.7.6 0 1.2-.2 1.7-.7 1-1.1 1.8-2.4 2.1-3.8.2-.7.3-1.4.3-2.1 0-.7-.1-1.4-.3-2.1-.9-3.8-4.2-5-8.2-5z"></path></g><defs data-v-fde0c5aa=""><!----></defs><g data-v-fde0c5aa="" id="71d31937-e3d5-4278-8b76-eb94c311fd14" fill="#FFFFFF" transform="matrix(0.4401431572954449,0,0,0.4401431572954449,110.21488858032632,161.6223368288379)"><path d="M1.75 4.65C1.75 4.03 2.11 3.08 4.21 3.08C5.91 3.08 6.69 3.82 6.80 4.75L7.88 4.75C7.80 3.36 6.68 2.10 4.21 2.10C1.89 2.10 0.73 3.15 0.73 4.66C0.73 7.84 7.07 6.69 7.07 8.96C7.07 10.05 6.09 10.60 4.52 10.60C2.91 10.60 1.61 10.05 1.54 8.71L0.45 8.71C0.59 10.37 1.71 11.59 4.45 11.59C6.73 11.59 8.12 10.64 8.12 8.92C8.12 5.68 1.75 6.80 1.75 4.65ZM24.54 2.21L21.28 6.61L17.96 2.21L16.74 2.21L16.74 11.48L17.79 11.48L17.79 3.81L21.28 8.22L24.71 3.81L24.71 11.48L25.76 11.48L25.76 2.21ZM41.85 3.22L41.85 2.21L35.03 2.21L35.03 11.48L41.85 11.48L41.85 10.47L36.08 10.47L36.08 7.35L41.23 7.35L41.23 6.33L36.08 6.33L36.08 3.22ZM51.04 4.65C51.04 4.03 51.41 3.08 53.51 3.08C55.20 3.08 55.99 3.82 56.10 4.75L57.18 4.75C57.09 3.36 55.97 2.10 53.51 2.10C51.18 2.10 50.02 3.15 50.02 4.66C50.02 7.84 56.36 6.69 56.36 8.96C56.36 10.05 55.38 10.60 53.82 10.60C52.21 10.60 50.90 10.05 50.83 8.71L49.74 8.71C49.88 10.37 51.00 11.59 53.75 11.59C56.03 11.59 57.41 10.64 57.41 8.92C57.41 5.68 51.04 6.80 51.04 4.65ZM81.59 3.70L84.10 11.48L85.29 11.48L88.17 2.21L87.07 2.21L84.69 10.00L82.19 2.21L80.99 2.21L78.50 10.00L76.12 2.21L75.01 2.21L77.90 11.48L79.09 11.48ZM97.48 2.21L96.43 2.21L96.43 11.48L97.48 11.48ZM106.75 2.21L106.75 11.48L112.85 11.48L112.85 10.47L107.80 10.47L107.80 2.21ZM121.21 2.21L121.21 11.48L127.32 11.48L127.32 10.47L122.26 10.47L122.26 2.21ZM152.60 2.21L152.60 10.01L146.87 2.21L145.66 2.21L145.66 11.48L146.71 11.48L146.71 3.65L152.43 11.48L153.65 11.48L153.65 2.21ZM167.03 2.10C164.22 2.10 162.33 4.21 162.33 6.85C162.33 9.48 164.22 11.59 167.03 11.59C169.85 11.59 171.74 9.48 171.74 6.85C171.74 4.21 169.85 2.10 167.03 2.10ZM167.03 10.57C164.78 10.57 163.38 8.93 163.38 6.85C163.38 4.76 164.78 3.12 167.03 3.12C169.29 3.12 170.69 4.76 170.69 6.85C170.69 8.93 169.29 10.57 167.03 10.57ZM186.61 2.21L179.09 2.21L179.09 3.22L182.32 3.22L182.32 11.48L183.37 11.48L183.37 3.22L186.61 3.22ZM210.76 6.75C211.41 6.45 212.00 5.85 212.00 4.66C212.00 3.54 211.26 2.21 209.08 2.21L204.92 2.21L204.92 11.48L209.31 11.48C211.43 11.48 212.48 10.43 212.48 9.04C212.48 7.66 211.54 7 210.76 6.75ZM205.97 3.21L209.19 3.21C210.46 3.21 210.95 3.98 210.95 4.75C210.95 5.88 210.04 6.36 209.08 6.36L205.97 6.36ZM209.43 10.49L205.97 10.49L205.97 7.31L209.31 7.31C210.78 7.31 211.43 8.09 211.43 8.96C211.43 9.93 210.70 10.49 209.43 10.49ZM228.00 3.22L228.00 2.21L221.19 2.21L221.19 11.48L228.00 11.48L228.00 10.47L222.24 10.47L222.24 7.35L227.39 7.35L227.39 6.33L222.24 6.33L222.24 3.22ZM247.30 4.65C247.30 4.03 247.66 3.08 249.76 3.08C251.45 3.08 252.24 3.82 252.35 4.75L253.43 4.75C253.34 3.36 252.22 2.10 249.76 2.10C247.44 2.10 246.27 3.15 246.27 4.66C246.27 7.84 252.62 6.69 252.62 8.96C252.62 10.05 251.64 10.60 250.07 10.60C248.46 10.60 247.16 10.05 247.09 8.71L245.99 8.71C246.13 10.37 247.25 11.59 250.00 11.59C252.28 11.59 253.67 10.64 253.67 8.92C253.67 5.68 247.30 6.80 247.30 4.65ZM262.29 2.21L262.29 11.48L268.39 11.48L268.39 10.47L263.34 10.47L263.34 2.21ZM280.91 2.21L279.59 2.21L275.66 11.48L276.82 11.48L277.96 8.79L282.55 8.79L283.68 11.48L284.84 11.48ZM278.36 7.83L280.25 3.30L282.14 7.83ZM298.89 2.21L295.68 10.29L292.47 2.21L291.33 2.21L295.08 11.48L296.28 11.48L300.03 2.21ZM315.03 3.22L315.03 2.21L308.21 2.21L308.21 11.48L315.03 11.48L315.03 10.47L309.26 10.47L309.26 7.35L314.41 7.35L314.41 6.33L309.26 6.33L309.26 3.22ZM324.23 4.65C324.23 4.03 324.59 3.08 326.69 3.08C328.38 3.08 329.17 3.82 329.28 4.75L330.36 4.75C330.27 3.36 329.15 2.10 326.69 2.10C324.37 2.10 323.20 3.15 323.20 4.66C323.20 7.84 329.55 6.69 329.55 8.96C329.55 10.05 328.57 10.60 327.00 10.60C325.39 10.60 324.09 10.05 324.02 8.71L322.92 8.71C323.06 10.37 324.18 11.59 326.93 11.59C329.21 11.59 330.60 10.64 330.60 8.92C330.60 5.68 324.23 6.80 324.23 4.65ZM338.95 10.05L338.95 11.48L340.31 11.48L340.31 10.05ZM340.02 8.92L340.28 2.21L338.98 2.21L339.25 8.92Z"></path></g></svg>